<?xml version="1.0" standalone="no"?>
<!DOCTYPE svg PUBLIC "-//W3C//DTD SVG 20010904//EN"
 "http://www.w3.org/TR/2001/REC-SVG-20010904/DTD/svg10.dtd">
<svg version="1.0" xmlns="http://www.w3.org/2000/svg"
 width="1280.000000pt" height="720.000000pt" viewBox="0 0 1280.000000 720.000000"
 preserveAspectRatio="xMidYMid meet">

<g transform="translate(0.000000,720.000000) scale(0.100000,-0.100000)"
fill="#000000" stroke="none">
<path d="M7553 5908 l-573 -573 0 -578 0 -577 -580 0 -580 0 0 575 0 575 -578
0 -577 0 -575 -575 -575 -575 578 0 577 0 0 -1732 0 -1733 575 575 575 575 0
578 0 579 578 576 577 577 3 -1152 2 -1153 578 0 577 0 575 575 575 575 -575
2 -575 3 -5 1728 -5 1727 -572 -572z"/>
</g>
</svg>
